{
  "extensionsUsed": ["EXT_mesh_features", "EXT_structural_metadata", "EXT_mesh_polygon"],
  "accessors": [{
      "bufferView": 0,
      "componentType": 5125,
      "count": 15,
      "type": "SCALAR"
    }, {
      "bufferView": 1,
      "componentType": 5125,
      "count": 8,
      "type": "SCALAR"
    }, {
      "bufferView": 2,
      "componentType": 5125,
      "count": 1,
      "type": "SCALAR"
    }, {
      "bufferView": 3,
      "componentType": 5125,
      "count": 1,
      "type": "SCALAR"
    }, {
      "bufferView": 4,
      "componentType": 5126,
      "count": 7,
      "type": "VEC3",
      "max": [49305.31640625, 32848.734375, -18.5810604095459],
      "min": [-34961.80078125, -24233.58203125, -226.5293731689453]
    }, {
      "bufferView": 10,
      "componentType": 5126,
      "count": 7,
      "type": "SCALAR"
    }],
  "asset": {
    "version": "2.0"
  },
  "buffers": [{
      "uri": "2_0.bin",
      "byteLength": 324
    }],
  "bufferViews": [{
      "buffer": 0,
      "byteLength": 60,
      "target": 34963
    }, {
      "buffer": 0,
      "byteOffset": 64,
      "byteLength": 32
    }, {
      "buffer": 0,
      "byteOffset": 96,
      "byteLength": 4
    }, {
      "buffer": 0,
      "byteOffset": 104,
      "byteLength": 4
    }, {
      "buffer": 0,
      "byteOffset": 112,
      "byteLength": 84
    }, {
      "buffer": 0,
      "byteOffset": 200,
      "byteLength": 56
    }, {
      "buffer": 0,
      "byteOffset": 256,
      "byteLength": 11
    }, {
      "buffer": 0,
      "byteOffset": 272,
      "byteLength": 8
    }, {
      "buffer": 0,
      "byteOffset": 280,
      "byteLength": 3
    }, {
      "buffer": 0,
      "byteOffset": 288,
      "byteLength": 8
    }, {
      "buffer": 0,
      "byteOffset": 296,
      "byteLength": 28
    }],
  "meshes": [{
      "primitives": [{
          "attributes": {
            "_FEATURE_ID_0": 5,
            "POSITION": 4
          },
          "indices": 0,
          "extensions": {
            "EXT_mesh_features": {
              "featureIds": [{
                  "featureCount": 7,
                  "attribute": 0,
                  "propertyTable": 0
                }]
            },
            "EXT_mesh_polygon": {
              "count": 1,
              "loopIndices": 1,
              "loopIndicesOffsets": 2,
              "indicesOffsets": 3
            }
          }
        }]
    }],
  "nodes": [{
      "matrix": [-0.1701354534218595, 0.0, -0.9854206855393987, 0.0, -0.7209584031233043, 0.6817073185664577, 0.12447535008516826, 0.0, 0.6717684931989839, 0.7316249939777414, -0.1159825837453043, 0.0, 4292328.809932075, 4643492.821515282, -741081.7725160354, 1.0],
      "mesh": 0
    }],
  "scene": 0,
  "scenes": [{
      "nodes": [0]
    }],
  "extensions": {
    "EXT_structural_metadata": {
      "schema": {
        "id": "schema_id",
        "name": "schema_name",
        "description": "description_vector",
        "version": "version",
        "classes": {
          "vector_polygon": {
            "name": "vector_polygon",
            "description": "description",
            "properties": {
              "_id": {
                "name": "_id",
                "description": "attribute description",
                "type": "STRING"
              },
              "name": {
                "name": "name",
                "description": "attribute description",
                "type": "STRING"
              }
            }
          }
        }
      },
      "propertyTables": [{
          "name": "vector_polygon",
          "class": "vector_polygon",
          "count": 1,
          "properties": {
            "_id": {
              "values": 8,
              "stringOffsets": 9
            },
            "name": {
              "values": 6,
              "stringOffsets": 7
            }
          }
        }]
    }
  }
}