{
  "extensionsUsed": ["EXT_mesh_features", "EXT_structural_metadata", "EXT_mesh_polygon"],
  "accessors": [{
      "bufferView": 0,
      "componentType": 5125,
      "count": 12,
      "type": "SCALAR"
    }, {
      "bufferView": 1,
      "componentType": 5125,
      "count": 7,
      "type": "SCALAR"
    }, {
      "bufferView": 2,
      "componentType": 5125,
      "count": 1,
      "type": "SCALAR"
    }, {
      "bufferView": 3,
      "componentType": 5125,
      "count": 1,
      "type": "SCALAR"
    }, {
      "bufferView": 4,
      "componentType": 5126,
      "count": 6,
      "type": "VEC3",
      "max": [46968.9296875, 29776.17578125, -46.734718322753906],
      "min": [-38636.8359375, -27415.23046875, -241.14227294921875]
    }, {
      "bufferView": 10,
      "componentType": 5126,
      "count": 6,
      "type": "SCALAR"
    }],
  "asset": {
    "version": "2.0"
  },
  "buffers": [{
      "uri": "0_0.bin",
      "byteLength": 280
    }],
  "bufferViews": [{
      "buffer": 0,
      "byteLength": 48,
      "target": 34963
    }, {
      "buffer": 0,
      "byteOffset": 48,
      "byteLength": 28
    }, {
      "buffer": 0,
      "byteOffset": 80,
      "byteLength": 4
    }, {
      "buffer": 0,
      "byteOffset": 88,
      "byteLength": 4
    }, {
      "buffer": 0,
      "byteOffset": 96,
      "byteLength": 72
    }, {
      "buffer": 0,
      "byteOffset": 168,
      "byteLength": 48
    }, {
      "buffer": 0,
      "byteOffset": 216,
      "byteLength": 11
    }, {
      "buffer": 0,
      "byteOffset": 232,
      "byteLength": 8
    }, {
      "buffer": 0,
      "byteOffset": 240,
      "byteLength": 3
    }, {
      "buffer": 0,
      "byteOffset": 248,
      "byteLength": 8
    }, {
      "buffer": 0,
      "byteOffset": 256,
      "byteLength": 24
    }],
  "meshes": [{
      "primitives": [{
          "attributes": {
            "_FEATURE_ID_0": 5,
            "POSITION": 4
          },
          "indices": 0,
          "extensions": {
            "EXT_mesh_features": {
              "featureIds": [{
                  "featureCount": 6,
                  "attribute": 0,
                  "propertyTable": 0
                }]
            },
            "EXT_mesh_polygon": {
              "count": 1,
              "loopIndices": 1,
              "loopIndicesOffsets": 2,
              "indicesOffsets": 3
            }
          }
        }]
    }],
  "nodes": [{
      "matrix": [-0.13269007930091703, 0.0, -0.9911575772071344, 0.0, -0.7132691529966403, 0.6943551978049597, 0.09548808650659515, 0.0, 0.6882154155775443, 0.7196324473515876, -0.09213404625974402, 0.0, 4397160.915851431, 4567111.267709436, -588664.8541468867, 1.0],
      "mesh": 0
    }],
  "scene": 0,
  "scenes": [{
      "nodes": [0]
    }],
  "extensions": {
    "EXT_structural_metadata": {
      "schema": {
        "id": "schema_id",
        "name": "schema_name",
        "description": "description_vector",
        "version": "version",
        "classes": {
          "vector_polygon": {
            "name": "vector_polygon",
            "description": "description",
            "properties": {
              "_id": {
                "name": "_id",
                "description": "attribute description",
                "type": "STRING"
              },
              "name": {
                "name": "name",
                "description": "attribute description",
                "type": "STRING"
              }
            }
          }
        }
      },
      "propertyTables": [{
          "name": "vector_polygon",
          "class": "vector_polygon",
          "count": 1,
          "properties": {
            "_id": {
              "values": 8,
              "stringOffsets": 9
            },
            "name": {
              "values": 6,
              "stringOffsets": 7
            }
          }
        }]
    }
  }
}