{
  "extensionsUsed": ["EXT_mesh_features", "EXT_structural_metadata", "EXT_mesh_polygon"],
  "accessors": [{
      "bufferView": 0,
      "componentType": 5125,
      "count": 6,
      "type": "SCALAR"
    }, {
      "bufferView": 1,
      "componentType": 5125,
      "count": 5,
      "type": "SCALAR"
    }, {
      "bufferView": 2,
      "componentType": 5125,
      "count": 1,
      "type": "SCALAR"
    }, {
      "bufferView": 3,
      "componentType": 5125,
      "count": 1,
      "type": "SCALAR"
    }, {
      "bufferView": 4,
      "componentType": 5126,
      "count": 4,
      "type": "VEC3",
      "max": [42174.671875, 28689.7421875, -201.1509552001953],
      "min": [-42174.671875, -28392.14453125, -202.47071838378906]
    }, {
      "bufferView": 10,
      "componentType": 5126,
      "count": 4,
      "type": "SCALAR"
    }],
  "asset": {
    "version": "2.0"
  },
  "buffers": [{
      "uri": "2_0.bin",
      "byteLength": 200
    }],
  "bufferViews": [{
      "buffer": 0,
      "byteLength": 24,
      "target": 34963
    }, {
      "buffer": 0,
      "byteOffset": 24,
      "byteLength": 20
    }, {
      "buffer": 0,
      "byteOffset": 48,
      "byteLength": 4
    }, {
      "buffer": 0,
      "byteOffset": 56,
      "byteLength": 4
    }, {
      "buffer": 0,
      "byteOffset": 64,
      "byteLength": 48
    }, {
      "buffer": 0,
      "byteOffset": 112,
      "byteLength": 32
    }, {
      "buffer": 0,
      "byteOffset": 144,
      "byteLength": 11
    }, {
      "buffer": 0,
      "byteOffset": 160,
      "byteLength": 8
    }, {
      "buffer": 0,
      "byteOffset": 168,
      "byteLength": 3
    }, {
      "buffer": 0,
      "byteOffset": 176,
      "byteLength": 8
    }, {
      "buffer": 0,
      "byteOffset": 184,
      "byteLength": 16
    }],
  "meshes": [{
      "primitives": [{
          "attributes": {
            "_FEATURE_ID_0": 5,
            "POSITION": 4
          },
          "indices": 0,
          "extensions": {
            "EXT_mesh_features": {
              "featureIds": [{
                  "featureCount": 4,
                  "attribute": 0,
                  "propertyTable": 0
                }]
            },
            "EXT_mesh_polygon": {
              "count": 1,
              "loopIndices": 1,
              "loopIndicesOffsets": 2,
              "indicesOffsets": 3
            }
          }
        }]
    }],
  "nodes": [{
      "matrix": [-0.13364274095011183, 0.0, -0.9910295746300114, 0.0, -0.7255078715498803, 0.6812241543458747, 0.09783649551629783, 0.0, 0.6751132839090814, 0.7320748947585541, -0.09104066318820472, 0.0, 4313710.211392141, 4646358.539507289, -581714.2808580255, 1.0],
      "mesh": 0
    }],
  "scene": 0,
  "scenes": [{
      "nodes": [0]
    }],
  "extensions": {
    "EXT_structural_metadata": {
      "schema": {
        "id": "schema_id",
        "name": "schema_name",
        "description": "description_vector",
        "version": "version",
        "classes": {
          "vector_polygon": {
            "name": "vector_polygon",
            "description": "description",
            "properties": {
              "_id": {
                "name": "_id",
                "description": "attribute description",
                "type": "STRING"
              },
              "name": {
                "name": "name",
                "description": "attribute description",
                "type": "STRING"
              }
            }
          }
        }
      },
      "propertyTables": [{
          "name": "vector_polygon",
          "class": "vector_polygon",
          "count": 1,
          "properties": {
            "_id": {
              "values": 8,
              "stringOffsets": 9
            },
            "name": {
              "values": 6,
              "stringOffsets": 7
            }
          }
        }]
    }
  }
}